<svg width="32" height="32" viewBox="0 0 32 32" fill="none" xmlns="http://www.w3.org/2000/svg">
<g clip-path="url(#clip0_118_792)">
<path d="M31.6553 6.43528C29.6423 6.52805 29.6863 6.52048 29.4587 6.53953L30.6509 3.13499C30.6509 3.13499 26.9297 4.50388 25.9863 4.74876C23.5088 2.52195 19.8262 2.42356 17.1934 4.04173C15.0374 5.36716 13.8801 7.64329 14.2661 10.3037C10.0701 9.72141 6.53467 7.7324 3.74341 4.37937L2.8606 3.31907L2.20093 4.53049C1.36719 6.06126 1.09033 7.8115 1.42114 9.45872C1.55688 10.1345 1.7876 10.779 2.10718 11.3825L1.34985 11.0891L1.26001 12.3545C1.16895 13.6399 1.59692 15.1404 2.40503 16.3679C2.63257 16.7136 2.92554 17.0932 3.29687 17.4678L2.90552 17.4077L3.38306 18.8576C4.01074 20.7627 5.31445 22.2365 7.00635 23.0559C5.31665 23.7729 3.95166 24.2304 1.70801 24.9685L-0.344727 25.6433L1.55127 26.6799C2.27417 27.0752 4.82861 28.3952 7.35254 28.7912C12.9629 29.6711 19.2795 28.9546 23.532 25.1247C27.1138 21.8989 28.2891 17.3103 28.0449 12.5351C28.0081 11.8122 28.2061 11.1223 28.6025 10.5928C29.3967 9.53245 31.6504 6.44236 31.6553 6.43528ZM27.1033 9.4697C26.4448 10.3489 26.115 11.4717 26.1741 12.6308C26.4204 17.4475 25.1099 21.1828 22.2786 23.7326C18.9712 26.7114 13.6365 27.8806 7.64282 26.9404C6.55737 26.7702 5.43555 26.3891 4.50708 26.0085C6.38818 25.3613 7.84082 24.7844 10.1868 23.674L13.4617 22.124L9.84595 21.8926C8.11401 21.7817 6.67187 20.9424 5.7854 19.5796C6.2561 19.5522 6.70996 19.4761 7.16186 19.3501L10.6104 18.3896L7.13306 17.5381C5.44336 17.1242 4.48022 16.1133 3.96973 15.3379C3.63452 14.8283 3.41553 14.3064 3.28418 13.8252C3.63281 13.9187 4.03931 13.9853 4.69482 14.0503L7.91333 14.3686L5.36328 12.3794C3.52588 10.9463 2.78955 8.79319 3.32935 6.72337C9.06372 12.6711 15.7966 12.2241 16.4744 12.3813C16.3252 10.9324 16.3213 10.9289 16.2822 10.791C15.4143 7.72288 17.3164 6.16502 18.1743 5.63767C19.9663 4.53635 22.8108 4.37034 24.781 6.18479C25.2065 6.57639 25.782 6.73045 26.3206 6.59666C26.804 6.47654 27.2007 6.34934 27.5891 6.21091L26.7805 8.52L27.8127 8.52073C27.6179 8.78196 27.3843 9.0947 27.1033 9.4697Z" fill="#AFB1B6"/>
</g>
<defs>
<clipPath id="clip0_118_792">
<rect width="32" height="32" fill="white"/>
</clipPath>
</defs>
</svg>
